<svg xmlns="http://www.w3.org/2000/svg" xmlns:xlink="http://www.w3.org/1999/xlink" width="500" zoomAndPan="magnify" viewBox="0 0 375 374.999991" height="500" preserveAspectRatio="xMidYMid meet" version="1.0"><defs><clipPath id="69ad68bd1e"><path d="M 140 153 L 246.84375 153 L 246.84375 257 L 140 257 Z M 140 153 " clip-rule="nonzero"/></clipPath></defs><rect x="-37.5" width="450" fill="#ffffff" y="-37.499999" height="449.999989" fill-opacity="1"/><rect x="-37.5" width="450" fill="#fafafa" y="-37.499999" height="449.999989" fill-opacity="1"/><path fill="#1c486f" d="M 170.5 148.042969 C 172.480469 148.042969 174.089844 146.433594 174.089844 144.453125 L 174.089844 137.503906 C 174.089844 128.515625 181.410156 121.191406 190.429688 121.191406 C 199.445312 121.191406 206.769531 128.515625 206.769531 137.503906 L 206.769531 144.453125 C 206.769531 146.433594 208.378906 148.042969 210.359375 148.042969 C 212.339844 148.042969 213.949219 146.433594 213.949219 144.453125 L 213.949219 138.480469 C 213.949219 125.929688 204.527344 114.90625 191.980469 114.070312 C 178.339844 113.179688 166.910156 124.035156 166.910156 137.503906 L 166.910156 144.453125 C 166.910156 146.433594 168.519531 148.042969 170.5 148.042969 Z M 170.5 148.042969 " fill-opacity="1" fill-rule="nonzero"/><g clip-path="url(#69ad68bd1e)"><path fill="#ef8121" d="M 245.996094 241.371094 L 238.097656 164.554688 C 237.46875 158.4375 232.328125 153.816406 226.179688 153.816406 L 154.675781 153.816406 C 148.53125 153.816406 143.390625 158.46875 142.757812 164.554688 L 140.777344 183.679688 C 139.457031 196.515625 151.660156 206.539062 163.980469 202.777344 L 170.671875 200.738281 C 178.28125 198.414062 186.78125 202.261719 189.769531 210.703125 C 190.800781 213.632812 190.660156 216.847656 189.738281 219.835938 L 186.78125 229.484375 C 182.703125 242.808594 192.667969 256.277344 206.597656 256.277344 L 232.554688 256.277344 C 240.566406 256.246094 246.828125 249.328125 245.996094 241.371094 Z M 245.996094 241.371094 " fill-opacity="1" fill-rule="nonzero"/></g><path fill="#1c486f" d="M 173.199219 208.953125 L 134.519531 220.753906 C 128.890625 222.476562 128.488281 230.289062 133.914062 232.585938 L 143.132812 236.460938 C 148.015625 238.53125 151.921875 242.40625 153.988281 247.316406 L 157.863281 256.535156 C 160.160156 261.960938 167.972656 261.558594 169.695312 255.933594 L 181.5 217.25 C 183.078125 212.167969 178.3125 207.402344 173.199219 208.953125 Z M 173.199219 208.953125 " fill-opacity="1" fill-rule="nonzero"/></svg>