<svg xmlns="http://www.w3.org/2000/svg" xmlns:xlink="http://www.w3.org/1999/xlink" width="500" zoomAndPan="magnify" viewBox="0 0 375 374.999991" height="500" preserveAspectRatio="xMidYMid meet" version="1.0"><defs><g/><clipPath id="71bd14d183"><path d="M 134 112 L 240.976562 112 L 240.976562 215 L 134 215 Z M 134 112 " clip-rule="nonzero"/></clipPath></defs><rect x="-37.5" width="450" fill="#ffffff" y="-37.499999" height="449.999989" fill-opacity="1"/><rect x="-37.5" width="450" fill="#fafafa" y="-37.499999" height="449.999989" fill-opacity="1"/><path fill="#1c486f" d="M 164.632812 106.628906 C 166.613281 106.628906 168.222656 105.023438 168.222656 103.042969 L 168.222656 96.089844 C 168.222656 87.101562 175.542969 79.78125 184.558594 79.78125 C 193.578125 79.78125 200.898438 87.101562 200.898438 96.089844 L 200.898438 103.042969 C 200.898438 105.023438 202.507812 106.628906 204.488281 106.628906 C 206.472656 106.628906 208.078125 105.023438 208.078125 103.042969 L 208.078125 97.066406 C 208.078125 84.519531 198.660156 73.492188 186.109375 72.660156 C 172.472656 71.769531 161.042969 82.625 161.042969 96.089844 L 161.042969 103.042969 C 161.042969 105.023438 162.648438 106.628906 164.632812 106.628906 Z M 164.632812 106.628906 " fill-opacity="1" fill-rule="nonzero"/><g clip-path="url(#71bd14d183)"><path fill="#ef8121" d="M 240.128906 199.960938 L 232.230469 123.144531 C 231.597656 117.027344 226.457031 112.402344 220.3125 112.402344 L 148.808594 112.402344 C 142.664062 112.402344 137.523438 117.054688 136.890625 123.144531 L 134.910156 142.269531 C 133.589844 155.105469 145.792969 165.125 158.113281 161.363281 L 164.804688 159.324219 C 172.414062 157 180.914062 160.847656 183.898438 169.289062 C 184.933594 172.21875 184.789062 175.4375 183.871094 178.421875 L 180.914062 188.070312 C 176.835938 201.394531 186.800781 214.863281 200.726562 214.863281 L 226.6875 214.863281 C 234.699219 214.835938 240.960938 207.914062 240.128906 199.960938 Z M 240.128906 199.960938 " fill-opacity="1" fill-rule="nonzero"/></g><path fill="#1c486f" d="M 167.332031 167.539062 L 128.648438 179.339844 C 123.019531 181.0625 122.617188 188.875 128.046875 191.171875 L 137.265625 195.050781 C 142.144531 197.117188 146.050781 200.992188 148.117188 205.902344 L 151.996094 215.121094 C 154.292969 220.550781 162.105469 220.148438 163.828125 214.519531 L 175.628906 175.835938 C 177.210938 170.753906 172.441406 165.988281 167.332031 167.539062 Z M 167.332031 167.539062 " fill-opacity="1" fill-rule="nonzero"/><g fill="#ef8121" fill-opacity="0.4"><g transform="translate(19.02804, 273.252164)"><g><path d="M 2.03125 -45.75 L 14.109375 -45.75 C 17.773438 -45.75 20.390625 -44.566406 21.953125 -42.203125 C 23.515625 -39.847656 24.296875 -36.398438 24.296875 -31.859375 C 24.296875 -27.304688 23.601562 -23.875 22.21875 -21.5625 C 20.832031 -19.257812 18.34375 -18.109375 14.75 -18.109375 L 11.03125 -18.109375 L 11.03125 0 L 2.03125 0 Z M 11.5625 -26.359375 C 12.65625 -26.359375 13.457031 -26.5625 13.96875 -26.96875 C 14.488281 -27.382812 14.828125 -27.972656 14.984375 -28.734375 C 15.148438 -29.492188 15.234375 -30.585938 15.234375 -32.015625 C 15.234375 -33.929688 15.019531 -35.316406 14.59375 -36.171875 C 14.164062 -37.023438 13.3125 -37.453125 12.03125 -37.453125 L 11.03125 -37.453125 L 11.03125 -26.359375 Z M 11.5625 -26.359375 "/></g></g></g><g fill="#ef8121" fill-opacity="0.4"><g transform="translate(44.166207, 273.252164)"><g><path d="M 1.859375 -46.015625 L 11.453125 -46.015625 L 11.453125 -35.15625 C 12.441406 -38 14.34375 -39.421875 17.15625 -39.421875 C 19.78125 -39.421875 21.765625 -38.582031 23.109375 -36.90625 C 24.460938 -35.238281 25.140625 -32.953125 25.140625 -30.046875 L 25.140625 0 L 15.8125 0 L 15.8125 -29.453125 C 15.8125 -30.304688 15.613281 -31 15.21875 -31.53125 C 14.832031 -32.0625 14.269531 -32.328125 13.53125 -32.328125 C 12.894531 -32.328125 12.390625 -32.050781 12.015625 -31.5 C 11.640625 -30.957031 11.453125 -30.296875 11.453125 -29.515625 L 11.453125 0 L 1.859375 0 Z M 1.859375 -46.015625 "/></g></g></g><g fill="#ef8121" fill-opacity="0.4"><g transform="translate(71.061911, 273.252164)"><g><path d="M 13.203125 0.421875 C 5.429688 0.421875 1.546875 -3.609375 1.546875 -11.671875 L 1.546875 -27.328125 C 1.546875 -31.015625 2.582031 -33.953125 4.65625 -36.140625 C 6.738281 -38.328125 9.585938 -39.421875 13.203125 -39.421875 C 16.828125 -39.421875 19.675781 -38.328125 21.75 -36.140625 C 23.832031 -33.953125 24.875 -31.015625 24.875 -27.328125 L 24.875 -11.671875 C 24.875 -3.609375 20.984375 0.421875 13.203125 0.421875 Z M 13.203125 -6.765625 C 13.953125 -6.765625 14.503906 -7.03125 14.859375 -7.5625 C 15.210938 -8.09375 15.390625 -8.820312 15.390625 -9.75 L 15.390625 -28.8125 C 15.390625 -31.082031 14.660156 -32.21875 13.203125 -32.21875 C 11.753906 -32.21875 11.03125 -31.082031 11.03125 -28.8125 L 11.03125 -9.75 C 11.03125 -8.820312 11.207031 -8.09375 11.5625 -7.5625 C 11.914062 -7.03125 12.460938 -6.765625 13.203125 -6.765625 Z M 13.203125 -6.765625 "/></g></g></g><g fill="#ef8121" fill-opacity="0.4"><g transform="translate(97.531551, 273.252164)"><g><path d="M 12.78125 0.421875 C 8.769531 0.421875 5.894531 -0.675781 4.15625 -2.875 C 2.414062 -5.070312 1.546875 -8.359375 1.546875 -12.734375 L 1.546875 -28.390625 C 1.546875 -31.972656 2.570312 -34.707031 4.625 -36.59375 C 6.6875 -38.476562 9.566406 -39.421875 13.265625 -39.421875 C 20.753906 -39.421875 24.5 -35.742188 24.5 -28.390625 L 24.5 -25.5625 C 24.5 -22.726562 24.460938 -20.421875 24.390625 -18.640625 L 10.859375 -18.640625 L 10.859375 -11.078125 C 10.859375 -9.734375 11 -8.675781 11.28125 -7.90625 C 11.570312 -7.144531 12.179688 -6.765625 13.109375 -6.765625 C 13.816406 -6.765625 14.320312 -6.976562 14.625 -7.40625 C 14.925781 -7.832031 15.101562 -8.316406 15.15625 -8.859375 C 15.207031 -9.410156 15.234375 -10.222656 15.234375 -11.296875 L 15.234375 -15.078125 L 24.5 -15.078125 L 24.5 -12.84375 C 24.5 -8.289062 23.617188 -4.941406 21.859375 -2.796875 C 20.109375 -0.648438 17.082031 0.421875 12.78125 0.421875 Z M 15.234375 -23.28125 L 15.234375 -28.28125 C 15.234375 -31.082031 14.539062 -32.484375 13.15625 -32.484375 C 11.59375 -32.484375 10.8125 -31.082031 10.8125 -28.28125 L 10.8125 -23.28125 Z M 15.234375 -23.28125 "/></g></g></g><g fill="#ef8121" fill-opacity="0.4"><g transform="translate(123.521857, 273.252164)"><g><path d="M 1.859375 -38.984375 L 11.1875 -38.984375 L 11.1875 -34.03125 C 11.570312 -35.632812 12.242188 -36.929688 13.203125 -37.921875 C 14.160156 -38.921875 15.441406 -39.421875 17.046875 -39.421875 C 19.671875 -39.421875 21.613281 -38.609375 22.875 -36.984375 C 24.132812 -35.367188 24.765625 -33.070312 24.765625 -30.09375 L 24.765625 0 L 15.609375 0 L 15.609375 -29.140625 C 15.609375 -29.992188 15.4375 -30.71875 15.09375 -31.3125 C 14.757812 -31.914062 14.238281 -32.21875 13.53125 -32.21875 C 12.570312 -32.21875 11.941406 -31.78125 11.640625 -30.90625 C 11.335938 -30.039062 11.1875 -28.882812 11.1875 -27.4375 L 11.1875 0 L 1.859375 0 Z M 1.859375 -38.984375 "/></g></g></g><g fill="#ef8121" fill-opacity="0.4"><g transform="translate(150.098008, 273.252164)"><g><path d="M 1.8125 -41.59375 L 1.8125 -48.09375 L 11.125 -48.09375 L 11.125 -41.59375 Z M 1.8125 0 L 1.8125 -38.984375 L 11.125 -38.984375 L 11.125 0 Z M 1.8125 0 "/></g></g></g><g fill="#ef8121" fill-opacity="0.4"><g transform="translate(163.0399, 273.252164)"><g><path d="M 24.234375 0 L 14.921875 0 L 10.96875 -10.96875 L 7.25 0 L 0.21875 0 L 7.34375 -20.9375 L 0.859375 -39.046875 L 10.328125 -39.046875 L 13.6875 -29.5625 L 16.984375 -39.046875 L 23.921875 -39.046875 L 17.203125 -19.765625 Z M 24.234375 0 "/></g></g></g><g fill="#ef8121" fill-opacity="1"><g transform="translate(19.02804, 273.252164)"><g><path d="M 2.03125 -45.75 L 14.109375 -45.75 C 17.773438 -45.75 20.390625 -44.566406 21.953125 -42.203125 C 23.515625 -39.847656 24.296875 -36.398438 24.296875 -31.859375 C 24.296875 -27.304688 23.601562 -23.875 22.21875 -21.5625 C 20.832031 -19.257812 18.34375 -18.109375 14.75 -18.109375 L 11.03125 -18.109375 L 11.03125 0 L 2.03125 0 Z M 11.5625 -26.359375 C 12.65625 -26.359375 13.457031 -26.5625 13.96875 -26.96875 C 14.488281 -27.382812 14.828125 -27.972656 14.984375 -28.734375 C 15.148438 -29.492188 15.234375 -30.585938 15.234375 -32.015625 C 15.234375 -33.929688 15.019531 -35.316406 14.59375 -36.171875 C 14.164062 -37.023438 13.3125 -37.453125 12.03125 -37.453125 L 11.03125 -37.453125 L 11.03125 -26.359375 Z M 11.5625 -26.359375 "/></g></g></g><g fill="#ef8121" fill-opacity="1"><g transform="translate(44.166207, 273.252164)"><g><path d="M 1.859375 -46.015625 L 11.453125 -46.015625 L 11.453125 -35.15625 C 12.441406 -38 14.34375 -39.421875 17.15625 -39.421875 C 19.78125 -39.421875 21.765625 -38.582031 23.109375 -36.90625 C 24.460938 -35.238281 25.140625 -32.953125 25.140625 -30.046875 L 25.140625 0 L 15.8125 0 L 15.8125 -29.453125 C 15.8125 -30.304688 15.613281 -31 15.21875 -31.53125 C 14.832031 -32.0625 14.269531 -32.328125 13.53125 -32.328125 C 12.894531 -32.328125 12.390625 -32.050781 12.015625 -31.5 C 11.640625 -30.957031 11.453125 -30.296875 11.453125 -29.515625 L 11.453125 0 L 1.859375 0 Z M 1.859375 -46.015625 "/></g></g></g><g fill="#ef8121" fill-opacity="1"><g transform="translate(71.061911, 273.252164)"><g><path d="M 13.203125 0.421875 C 5.429688 0.421875 1.546875 -3.609375 1.546875 -11.671875 L 1.546875 -27.328125 C 1.546875 -31.015625 2.582031 -33.953125 4.65625 -36.140625 C 6.738281 -38.328125 9.585938 -39.421875 13.203125 -39.421875 C 16.828125 -39.421875 19.675781 -38.328125 21.75 -36.140625 C 23.832031 -33.953125 24.875 -31.015625 24.875 -27.328125 L 24.875 -11.671875 C 24.875 -3.609375 20.984375 0.421875 13.203125 0.421875 Z M 13.203125 -6.765625 C 13.953125 -6.765625 14.503906 -7.03125 14.859375 -7.5625 C 15.210938 -8.09375 15.390625 -8.820312 15.390625 -9.75 L 15.390625 -28.8125 C 15.390625 -31.082031 14.660156 -32.21875 13.203125 -32.21875 C 11.753906 -32.21875 11.03125 -31.082031 11.03125 -28.8125 L 11.03125 -9.75 C 11.03125 -8.820312 11.207031 -8.09375 11.5625 -7.5625 C 11.914062 -7.03125 12.460938 -6.765625 13.203125 -6.765625 Z M 13.203125 -6.765625 "/></g></g></g><g fill="#ef8121" fill-opacity="1"><g transform="translate(97.531551, 273.252164)"><g><path d="M 12.78125 0.421875 C 8.769531 0.421875 5.894531 -0.675781 4.15625 -2.875 C 2.414062 -5.070312 1.546875 -8.359375 1.546875 -12.734375 L 1.546875 -28.390625 C 1.546875 -31.972656 2.570312 -34.707031 4.625 -36.59375 C 6.6875 -38.476562 9.566406 -39.421875 13.265625 -39.421875 C 20.753906 -39.421875 24.5 -35.742188 24.5 -28.390625 L 24.5 -25.5625 C 24.5 -22.726562 24.460938 -20.421875 24.390625 -18.640625 L 10.859375 -18.640625 L 10.859375 -11.078125 C 10.859375 -9.734375 11 -8.675781 11.28125 -7.90625 C 11.570312 -7.144531 12.179688 -6.765625 13.109375 -6.765625 C 13.816406 -6.765625 14.320312 -6.976562 14.625 -7.40625 C 14.925781 -7.832031 15.101562 -8.316406 15.15625 -8.859375 C 15.207031 -9.410156 15.234375 -10.222656 15.234375 -11.296875 L 15.234375 -15.078125 L 24.5 -15.078125 L 24.5 -12.84375 C 24.5 -8.289062 23.617188 -4.941406 21.859375 -2.796875 C 20.109375 -0.648438 17.082031 0.421875 12.78125 0.421875 Z M 15.234375 -23.28125 L 15.234375 -28.28125 C 15.234375 -31.082031 14.539062 -32.484375 13.15625 -32.484375 C 11.59375 -32.484375 10.8125 -31.082031 10.8125 -28.28125 L 10.8125 -23.28125 Z M 15.234375 -23.28125 "/></g></g></g><g fill="#ef8121" fill-opacity="1"><g transform="translate(123.521857, 273.252164)"><g><path d="M 1.859375 -38.984375 L 11.1875 -38.984375 L 11.1875 -34.03125 C 11.570312 -35.632812 12.242188 -36.929688 13.203125 -37.921875 C 14.160156 -38.921875 15.441406 -39.421875 17.046875 -39.421875 C 19.671875 -39.421875 21.613281 -38.609375 22.875 -36.984375 C 24.132812 -35.367188 24.765625 -33.070312 24.765625 -30.09375 L 24.765625 0 L 15.609375 0 L 15.609375 -29.140625 C 15.609375 -29.992188 15.4375 -30.71875 15.09375 -31.3125 C 14.757812 -31.914062 14.238281 -32.21875 13.53125 -32.21875 C 12.570312 -32.21875 11.941406 -31.78125 11.640625 -30.90625 C 11.335938 -30.039062 11.1875 -28.882812 11.1875 -27.4375 L 11.1875 0 L 1.859375 0 Z M 1.859375 -38.984375 "/></g></g></g><g fill="#ef8121" fill-opacity="1"><g transform="translate(150.098008, 273.252164)"><g><path d="M 1.8125 -41.59375 L 1.8125 -48.09375 L 11.125 -48.09375 L 11.125 -41.59375 Z M 1.8125 0 L 1.8125 -38.984375 L 11.125 -38.984375 L 11.125 0 Z M 1.8125 0 "/></g></g></g><g fill="#ef8121" fill-opacity="1"><g transform="translate(163.0399, 273.252164)"><g><path d="M 24.234375 0 L 14.921875 0 L 10.96875 -10.96875 L 7.25 0 L 0.21875 0 L 7.34375 -20.9375 L 0.859375 -39.046875 L 10.328125 -39.046875 L 13.6875 -29.5625 L 16.984375 -39.046875 L 23.921875 -39.046875 L 17.203125 -19.765625 Z M 24.234375 0 "/></g></g></g><g fill="#1c486f" fill-opacity="1"><g transform="translate(193.574128, 274.433524)"><g><path d="M 2 0 L 2 -45.3125 L 20.15625 -45.3125 L 20.15625 -36.5 L 11.125 -36.5 L 11.125 -29.28125 L 19.671875 -29.28125 L 19.671875 -20.578125 L 11.125 -20.578125 L 11.125 0 Z M 2 0 "/></g></g></g><g fill="#1c486f" fill-opacity="1"><g transform="translate(214.618257, 274.433524)"><g><path d="M 8.859375 0.421875 C 5.867188 0.421875 3.820312 -0.566406 2.71875 -2.546875 C 1.613281 -4.535156 1.0625 -7.378906 1.0625 -11.078125 C 1.0625 -14.097656 1.453125 -16.414062 2.234375 -18.03125 C 3.023438 -19.65625 4.125 -20.84375 5.53125 -21.59375 C 6.945312 -22.351562 9.09375 -23.191406 11.96875 -24.109375 L 14.5 -24.953125 L 14.5 -28.90625 C 14.5 -29.925781 14.296875 -30.707031 13.890625 -31.25 C 13.492188 -31.800781 13.015625 -32.078125 12.453125 -32.078125 C 11.953125 -32.078125 11.519531 -31.847656 11.15625 -31.390625 C 10.789062 -30.929688 10.609375 -30.316406 10.609375 -29.546875 L 10.609375 -27.21875 L 1.640625 -27.21875 L 1.640625 -28.484375 C 1.640625 -32.285156 2.523438 -34.992188 4.296875 -36.609375 C 6.078125 -38.222656 8.96875 -39.03125 12.96875 -39.03125 C 16.175781 -39.03125 18.78125 -38.195312 20.78125 -36.53125 C 22.789062 -34.863281 23.796875 -32.5 23.796875 -29.4375 L 23.796875 0 L 14.609375 0 L 14.609375 -4.59375 C 14.148438 -3.007812 13.421875 -1.773438 12.421875 -0.890625 C 11.421875 -0.015625 10.234375 0.421875 8.859375 0.421875 Z M 12.5 -6.75 C 13.207031 -6.75 13.707031 -7.039062 14 -7.625 C 14.300781 -8.207031 14.453125 -8.921875 14.453125 -9.765625 L 14.453125 -20.515625 C 13.078125 -19.992188 12.0625 -19.328125 11.40625 -18.515625 C 10.757812 -17.703125 10.4375 -16.578125 10.4375 -15.140625 L 10.4375 -10.1875 C 10.4375 -7.894531 11.125 -6.75 12.5 -6.75 Z M 12.5 -6.75 "/></g></g></g><g fill="#1c486f" fill-opacity="1"><g transform="translate(240.092734, 274.433524)"><g><path d="M 12.453125 0.421875 C 4.816406 0.421875 1 -3.445312 1 -11.1875 L 1.0625 -14.25 L 10.28125 -14.25 L 10.34375 -9.703125 C 10.34375 -8.785156 10.515625 -8.085938 10.859375 -7.609375 C 11.210938 -7.140625 11.796875 -6.90625 12.609375 -6.90625 C 13.835938 -6.90625 14.453125 -7.910156 14.453125 -9.921875 C 14.453125 -11.390625 14.160156 -12.546875 13.578125 -13.390625 C 13.003906 -14.242188 12.082031 -15.144531 10.8125 -16.09375 L 5.90625 -19.890625 C 4.21875 -21.191406 3.003906 -22.535156 2.265625 -23.921875 C 1.523438 -25.304688 1.15625 -27.265625 1.15625 -29.796875 C 1.15625 -31.773438 1.671875 -33.457031 2.703125 -34.84375 C 3.742188 -36.226562 5.125 -37.269531 6.84375 -37.96875 C 8.570312 -38.675781 10.492188 -39.03125 12.609375 -39.03125 C 20.097656 -39.03125 23.84375 -35.304688 23.84375 -27.859375 L 23.84375 -27.109375 L 14.296875 -27.109375 L 14.296875 -28.59375 C 14.296875 -29.507812 14.144531 -30.289062 13.84375 -30.9375 C 13.550781 -31.582031 13.050781 -31.90625 12.34375 -31.90625 C 11.707031 -31.90625 11.222656 -31.722656 10.890625 -31.359375 C 10.554688 -30.992188 10.390625 -30.492188 10.390625 -29.859375 C 10.390625 -28.453125 10.9375 -27.363281 12.03125 -26.59375 L 17.71875 -22.421875 C 19.757812 -20.910156 21.320312 -19.265625 22.40625 -17.484375 C 23.5 -15.710938 24.046875 -13.472656 24.046875 -10.765625 C 24.046875 -7.171875 23.023438 -4.40625 20.984375 -2.46875 C 18.953125 -0.539062 16.109375 0.421875 12.453125 0.421875 Z M 12.453125 0.421875 "/></g></g></g><g fill="#1c486f" fill-opacity="1"><g transform="translate(265.14527, 274.433524)"><g><path d="M 1.84375 -45.578125 L 11.34375 -45.578125 L 11.34375 -34.8125 C 12.320312 -37.625 14.203125 -39.03125 16.984375 -39.03125 C 19.585938 -39.03125 21.554688 -38.203125 22.890625 -36.546875 C 24.222656 -34.898438 24.890625 -32.632812 24.890625 -29.75 L 24.890625 0 L 15.671875 0 L 15.671875 -29.171875 C 15.671875 -30.015625 15.472656 -30.695312 15.078125 -31.21875 C 14.691406 -31.75 14.132812 -32.015625 13.40625 -32.015625 C 12.769531 -32.015625 12.265625 -31.742188 11.890625 -31.203125 C 11.523438 -30.660156 11.34375 -30 11.34375 -29.21875 L 11.34375 0 L 1.84375 0 Z M 1.84375 -45.578125 "/></g></g></g><g fill="#1c486f" fill-opacity="1"><g transform="translate(291.780073, 274.433524)"><g><path d="M 1.796875 -41.203125 L 1.796875 -47.640625 L 11.03125 -47.640625 L 11.03125 -41.203125 Z M 1.796875 0 L 1.796875 -38.609375 L 11.03125 -38.609375 L 11.03125 0 Z M 1.796875 0 "/></g></g></g><g fill="#1c486f" fill-opacity="1"><g transform="translate(304.596422, 274.433524)"><g><path d="M 13.078125 0.421875 C 5.378906 0.421875 1.53125 -3.566406 1.53125 -11.546875 L 1.53125 -27.0625 C 1.53125 -30.71875 2.554688 -33.625 4.609375 -35.78125 C 6.671875 -37.945312 9.492188 -39.03125 13.078125 -39.03125 C 16.671875 -39.03125 19.492188 -37.945312 21.546875 -35.78125 C 23.609375 -33.625 24.640625 -30.71875 24.640625 -27.0625 L 24.640625 -11.546875 C 24.640625 -3.566406 20.785156 0.421875 13.078125 0.421875 Z M 13.078125 -6.703125 C 13.816406 -6.703125 14.363281 -6.960938 14.71875 -7.484375 C 15.070312 -8.015625 15.25 -8.738281 15.25 -9.65625 L 15.25 -28.53125 C 15.25 -30.78125 14.523438 -31.90625 13.078125 -31.90625 C 11.640625 -31.90625 10.921875 -30.78125 10.921875 -28.53125 L 10.921875 -9.65625 C 10.921875 -8.738281 11.09375 -8.015625 11.4375 -7.484375 C 11.789062 -6.960938 12.335938 -6.703125 13.078125 -6.703125 Z M 13.078125 -6.703125 "/></g></g></g><g fill="#1c486f" fill-opacity="1"><g transform="translate(330.809294, 274.433524)"><g><path d="M 1.84375 -38.609375 L 11.078125 -38.609375 L 11.078125 -33.703125 C 11.460938 -35.285156 12.128906 -36.566406 13.078125 -37.546875 C 14.023438 -38.535156 15.289062 -39.03125 16.875 -39.03125 C 19.476562 -39.03125 21.40625 -38.226562 22.65625 -36.625 C 23.90625 -35.03125 24.53125 -32.753906 24.53125 -29.796875 L 24.53125 0 L 15.453125 0 L 15.453125 -28.859375 C 15.453125 -29.703125 15.285156 -30.421875 14.953125 -31.015625 C 14.617188 -31.609375 14.101562 -31.90625 13.40625 -31.90625 C 12.445312 -31.90625 11.816406 -31.472656 11.515625 -30.609375 C 11.222656 -29.753906 11.078125 -28.609375 11.078125 -27.171875 L 11.078125 0 L 1.84375 0 Z M 1.84375 -38.609375 "/></g></g></g><g fill="#424141" fill-opacity="1"><g transform="translate(156.305743, 311.553846)"><g><path d="M 16.265625 0 L 18.816406 0 L 18.816406 -20.296875 L 16.265625 -20.296875 L 16.265625 -11.570312 L 5.507812 -11.570312 L 5.507812 -20.296875 L 2.957031 -20.296875 L 2.957031 0 L 5.507812 0 L 5.507812 -9.132812 L 16.265625 -9.132812 Z M 16.265625 0 "/></g></g></g><g fill="#424141" fill-opacity="1"><g transform="translate(178.07887, 311.553846)"><g><path d="M 10.554688 0.347656 C 15.453125 0.347656 18.410156 -2.871094 18.410156 -8.261719 L 18.410156 -20.296875 L 15.859375 -20.296875 L 15.859375 -8.4375 C 15.859375 -4.292969 14.035156 -2.144531 10.554688 -2.144531 C 7.105469 -2.144531 5.25 -4.292969 5.25 -8.4375 L 5.25 -20.296875 L 2.726562 -20.296875 L 2.726562 -8.261719 C 2.726562 -2.871094 5.652344 0.347656 10.554688 0.347656 Z M 10.554688 0.347656 "/></g></g></g><g fill="#424141" fill-opacity="1"><g transform="translate(199.21416, 311.553846)"><g><path d="M 2.957031 0 L 11.191406 0 C 15.28125 0 17.832031 -2.175781 17.832031 -5.683594 C 17.832031 -7.972656 16.699219 -9.683594 14.613281 -10.523438 C 16.265625 -11.367188 17.253906 -12.933594 17.253906 -14.902344 C 17.253906 -18.179688 14.699219 -20.296875 10.816406 -20.296875 L 2.957031 -20.296875 Z M 5.507812 -2.378906 L 5.507812 -9.191406 L 11.105469 -9.191406 C 13.742188 -9.191406 15.222656 -7.945312 15.222656 -5.800781 C 15.222656 -3.625 13.742188 -2.378906 11.132812 -2.378906 Z M 5.507812 -11.511719 L 5.507812 -17.917969 L 10.757812 -17.917969 C 13.222656 -17.917969 14.640625 -16.757812 14.640625 -14.699219 C 14.640625 -12.671875 13.25 -11.511719 10.757812 -11.511719 Z M 5.507812 -11.511719 "/></g></g></g></svg>